<svg width="14" height="12" viewBox="0 0 14 12" fill="none" xmlns="http://www.w3.org/2000/svg">
<path d="M12.9469 4.4149H8.86123L7.6203 0.709793C7.58844 0.623525 7.53091 0.549094 7.45545 0.496524C7.37999 0.443954 7.29024 0.415771 7.19828 0.415771C7.10631 0.415771 7.01656 0.443954 6.9411 0.496524C6.86565 0.549094 6.80811 0.623525 6.77625 0.709793L5.53465 4.4149H1.41907C1.3013 4.41526 1.18846 4.4622 1.10519 4.54548C1.02192 4.62875 0.974976 4.74159 0.974617 4.85935C0.974445 4.8845 0.977181 4.90959 0.982772 4.93411C0.98866 4.99695 1.00841 5.05771 1.04061 5.112C1.07281 5.1663 1.11665 5.21277 1.16898 5.24808L4.52682 7.6144L3.24036 11.3603C3.20991 11.4491 3.2083 11.5453 3.23576 11.6352C3.26322 11.725 3.31834 11.8038 3.39327 11.8605C3.4627 11.9227 3.55048 11.9606 3.64336 11.9685C3.74345 11.9615 3.83965 11.9269 3.92131 11.8686L7.19556 9.53287L10.4725 11.8686C10.5536 11.9281 10.6501 11.9627 10.7505 11.9685C10.8443 11.9629 10.9331 11.9244 11.0012 11.8598C11.0768 11.8037 11.1325 11.7249 11.16 11.6349C11.1875 11.5448 11.1855 11.4484 11.1542 11.3596L9.86294 7.61304L13.1929 5.22497L13.2738 5.15701C13.3564 5.0789 13.4077 4.97328 13.4179 4.86003C13.4114 4.7396 13.3589 4.62625 13.2713 4.5434C13.1836 4.46056 13.0675 4.41456 12.9469 4.4149Z" fill="#FFD12F"/>
</svg>
